<svg width="24" height="24" viewBox="0 0 24 24" fill="none" xmlns="http://www.w3.org/2000/svg">
<path d="M16 8V6.33333C16 4.76198 16 3.97631 15.5314 3.48816C15.0627 3 14.3085 3 12.8 3H11.2C9.69151 3 8.93726 3 8.46863 3.48816C8 3.97631 8 4.76198 8 6.33333V8" stroke="white" stroke-width="1.5"/>
<path d="M10.7102 6.33971C11.5142 5.88676 12.4858 5.88676 13.2898 6.33971L17.5955 8.76533C18.4613 9.25306 19 10.1905 19 11.2092V15.7908C19 16.8095 18.4613 17.7469 17.5955 18.2347L13.2898 20.6603C12.4858 21.1132 11.5142 21.1132 10.7102 20.6603L6.40446 18.2347C5.5387 17.7469 5 16.8095 5 15.7908V11.2092C5 10.1905 5.5387 9.25306 6.40446 8.76533L10.7102 6.33971Z" stroke="white" stroke-width="1.5"/>
<path d="M11.2883 11.8521C11.605 11.284 11.7633 11 12 11C12.2367 11 12.395 11.284 12.7117 11.8521L12.7936 11.9991C12.8836 12.1605 12.9286 12.2412 12.9988 12.2945C13.0689 12.3477 13.1563 12.3675 13.331 12.407L13.4901 12.443C14.105 12.5821 14.4125 12.6517 14.4856 12.8869C14.5588 13.1222 14.3492 13.3673 13.93 13.8575L13.8215 13.9843C13.7024 14.1236 13.6428 14.1933 13.616 14.2794C13.5892 14.3656 13.5982 14.4585 13.6163 14.6444L13.6327 14.8136C13.696 15.4676 13.7277 15.7947 13.5362 15.9401C13.3447 16.0854 13.0568 15.9529 12.4811 15.6878L12.3321 15.6192C12.1685 15.5439 12.0867 15.5062 12 15.5062C11.9133 15.5062 11.8315 15.5439 11.6679 15.6192L11.5189 15.6878C10.9432 15.9529 10.6553 16.0854 10.4638 15.9401C10.2723 15.7947 10.304 15.4676 10.3673 14.8136L10.3837 14.6444C10.4018 14.4585 10.4108 14.3656 10.384 14.2794C10.3572 14.1933 10.2976 14.1236 10.1785 13.9843L10.07 13.8575C9.65081 13.3673 9.44121 13.1222 9.51436 12.8869C9.5875 12.6517 9.89496 12.5821 10.5099 12.443L10.669 12.407C10.8437 12.3675 10.9311 12.3477 11.0012 12.2945C11.0714 12.2412 11.1164 12.1605 11.2064 11.9991L11.2883 11.8521Z" fill="#5BA291"/>
</svg>
