<svg width="16" height="15" viewBox="0 0 16 15" fill="none" xmlns="http://www.w3.org/2000/svg">
<path d="M9.2162 4.39941L9.58187 4.03373C10.1877 3.42786 11.1701 3.42786 11.7759 4.03373C12.3818 4.6396 12.3818 5.62191 11.7759 6.22778L11.4102 6.59346M9.2162 4.39941C9.2162 4.39941 9.26191 5.17647 9.94755 5.86211C10.6332 6.54775 11.4102 6.59346 11.4102 6.59346M9.2162 4.39941L5.85438 7.76123C5.62667 7.98893 5.51282 8.10278 5.41491 8.22832C5.29941 8.3764 5.20038 8.53663 5.11959 8.70616C5.05109 8.84988 5.00018 9.00262 4.89834 9.30812L4.46683 10.6027M11.4102 6.59346L8.04843 9.95528C7.82072 10.183 7.70687 10.2968 7.58134 10.3947C7.43325 10.5102 7.27303 10.6093 7.1035 10.6901C6.95978 10.7586 6.80703 10.8095 6.50153 10.9113L5.207 11.3428M5.207 11.3428L4.89057 11.4483C4.74023 11.4984 4.57448 11.4593 4.46243 11.3472C4.35037 11.2352 4.31124 11.0694 4.36136 10.9191L4.46683 10.6027M5.207 11.3428L4.46683 10.6027" stroke="#5BA291" stroke-width="0.73973"/>
</svg>
