<svg width="24" height="24" viewBox="0 0 24 24" fill="none" xmlns="http://www.w3.org/2000/svg">
<path d="M3 12.1835C3 10.1239 3 9.09415 3.46728 8.24047C3.93456 7.38679 4.78825 6.85696 6.49563 5.79731L8.29563 4.68018C10.1004 3.56006 11.0029 3 12 3C12.9971 3 13.8996 3.56006 15.7044 4.68018L17.5044 5.79731C19.2117 6.85696 20.0654 7.38679 20.5327 8.24047C21 9.09415 21 10.1239 21 12.1835V13.5525C21 17.0633 21 18.8187 19.9456 19.9093C18.8912 21 17.1941 21 13.8 21H10.2C6.80589 21 5.10883 21 4.05442 19.9093C3 18.8187 3 17.0633 3 13.5525V12.1835Z" fill="white" stroke="white" stroke-width="1.5"/>
<path d="M9.60001 15.2C10.2803 15.7043 11.1077 16 12 16C12.8924 16 13.7197 15.7043 14.4 15.2" stroke="#5BA291" stroke-width="1.5" stroke-linecap="round"/>
</svg>
