<svg width="24" height="24" viewBox="0 0 24 24" fill="none" xmlns="http://www.w3.org/2000/svg">
<path d="M4.00003 15.92C4.00003 14.8725 4.00003 14.3487 4.23581 13.964C4.36774 13.7487 4.54874 13.5677 4.76403 13.4357C5.14878 13.2 5.67253 13.2 6.72003 13.2H7.60003C9.10852 13.2 9.86277 13.2 10.3314 13.6686C10.8 14.1372 10.8 14.8915 10.8 16.4V17.28C10.8 18.3275 10.8 18.8512 10.5643 19.236C10.4323 19.4513 10.2513 19.6323 10.036 19.7642C9.65128 20 9.12753 20 8.08003 20C6.50878 20 5.72316 20 5.14603 19.6463C4.8231 19.4484 4.55159 19.1769 4.35369 18.854C4.00003 18.2768 4.00003 17.4912 4.00003 15.92Z" stroke="white" stroke-width="1.2"/>
<path d="M13.2 6.71995C13.2 5.67246 13.2 5.14871 13.4358 4.76396C13.5677 4.54867 13.7487 4.36766 13.964 4.23573C14.3487 3.99995 14.8725 3.99995 15.92 3.99995C17.4912 3.99995 18.2769 3.99995 18.854 4.35362C19.1769 4.55151 19.4484 4.82302 19.6463 5.14596C20 5.72308 20 6.50871 20 8.07995C20 9.12745 20 9.6512 19.7642 10.036C19.6323 10.2512 19.4513 10.4322 19.236 10.5642C18.8512 10.8 18.3275 10.8 17.28 10.8H16.4C14.8915 10.8 14.1372 10.8 13.6686 10.3313C13.2 9.8627 13.2 9.10845 13.2 7.59995V6.71995Z" stroke="white" stroke-width="1.2"/>
<path d="M15.6 7.40004C15.6 6.98771 15.6 6.78155 15.7033 6.63598C15.7397 6.58462 15.7846 6.53977 15.8359 6.50333C15.9815 6.40004 16.1877 6.40004 16.6 6.40004C17.0123 6.40004 17.2185 6.40004 17.364 6.50333C17.4154 6.53977 17.4602 6.58462 17.4967 6.63598C17.6 6.78155 17.6 6.98771 17.6 7.40004C17.6 7.81237 17.6 8.01853 17.4967 8.1641C17.4602 8.21546 17.4154 8.26031 17.364 8.29675C17.2185 8.40004 17.0123 8.40004 16.6 8.40004C16.1877 8.40004 15.9815 8.40004 15.8359 8.29675C15.7846 8.26031 15.7397 8.21546 15.7033 8.1641C15.6 8.01853 15.6 7.81237 15.6 7.40004Z" fill="white"/>
<path d="M12.6 20C12.6 20.3313 12.8686 20.6 13.2 20.6C13.5314 20.6 13.8 20.3313 13.8 20H12.6ZM13.9111 13.4696L14.2444 13.9685L14.2444 13.9685L13.9111 13.4696ZM13.4696 13.9111L12.9707 13.5777L12.9707 13.5777L13.4696 13.9111ZM17.6 12.6H16V13.8H17.6V12.6ZM12.6 17.6V20H13.8V17.6H12.6ZM16 12.6C15.4507 12.6 14.9935 12.5992 14.6248 12.6368C14.246 12.6753 13.8945 12.7591 13.5777 12.9707L14.2444 13.9685C14.3312 13.9105 14.4623 13.8595 14.7462 13.8306C15.0402 13.8007 15.4257 13.8 16 13.8V12.6ZM13.8 16C13.8 15.4257 13.8007 15.0402 13.8306 14.7462C13.8595 14.4623 13.9105 14.3312 13.9685 14.2444L12.9707 13.5777C12.7591 13.8945 12.6753 14.246 12.6368 14.6248C12.5993 14.9935 12.6 15.4507 12.6 16H13.8ZM13.5777 12.9707C13.3375 13.1312 13.1313 13.3375 12.9707 13.5777L13.9685 14.2444C14.0415 14.1352 14.1352 14.0415 14.2444 13.9685L13.5777 12.9707Z" fill="#5BA291"/>
<path d="M20.6 13.2C20.6 12.8686 20.3314 12.6 20 12.6C19.6687 12.6 19.4 12.8686 19.4 13.2H20.6ZM19.0123 19.8782L19.2419 20.4325L19.2419 20.4325L19.0123 19.8782ZM19.8782 19.0123L19.3239 18.7826L19.3239 18.7826L19.8782 19.0123ZM16 20.6H17.6V19.4H16V20.6ZM20.6 16V13.2H19.4V16H20.6ZM17.6 20.6C17.9646 20.6 18.268 20.6003 18.5163 20.5834C18.77 20.566 19.0096 20.5287 19.2419 20.4325L18.7827 19.3238C18.721 19.3494 18.6272 19.373 18.4346 19.3861C18.2367 19.3996 17.981 19.4 17.6 19.4V20.6ZM19.4 17.6C19.4 17.9809 19.3997 18.2366 19.3862 18.4346C19.3731 18.6272 19.3495 18.7209 19.3239 18.7826L20.4326 19.2419C20.5288 19.0096 20.5661 18.7699 20.5834 18.5163C20.6004 18.268 20.6 17.9645 20.6 17.6H19.4ZM19.2419 20.4325C19.781 20.2092 20.2093 19.7809 20.4326 19.2419L19.3239 18.7826C19.2224 19.0277 19.0277 19.2224 18.7827 19.3238L19.2419 20.4325Z" fill="#5BA291"/>
<path d="M4.00003 8.07995C4.00003 6.50871 4.00003 5.72308 4.35369 5.14596C4.55159 4.82302 4.8231 4.55151 5.14603 4.35362C5.72316 3.99995 6.50878 3.99995 8.08003 3.99995C9.12753 3.99995 9.65128 3.99995 10.036 4.23573C10.2513 4.36766 10.4323 4.54867 10.5643 4.76396C10.8 5.14871 10.8 5.67246 10.8 6.71995V7.59995C10.8 9.10845 10.8 9.8627 10.3314 10.3313C9.86277 10.8 9.10852 10.8 7.60003 10.8H6.72003C5.67253 10.8 5.14878 10.8 4.76403 10.5642C4.54874 10.4322 4.36774 10.2512 4.23581 10.036C4.00003 9.6512 4.00003 9.12745 4.00003 8.07995Z" stroke="white" stroke-width="1.2"/>
<path d="M6.39996 7.40004C6.39996 6.98771 6.39996 6.78155 6.50325 6.63598C6.53969 6.58462 6.58454 6.53977 6.63591 6.50333C6.78148 6.40004 6.98764 6.40004 7.39996 6.40004C7.81229 6.40004 8.01845 6.40004 8.16402 6.50333C8.21538 6.53977 8.26023 6.58462 8.29668 6.63598C8.39996 6.78155 8.39996 6.98771 8.39996 7.40004C8.39996 7.81237 8.39996 8.01853 8.29668 8.1641C8.26023 8.21546 8.21538 8.26031 8.16402 8.29675C8.01845 8.40004 7.81229 8.40004 7.39996 8.40004C6.98764 8.40004 6.78148 8.40004 6.63591 8.29675C6.58454 8.26031 6.53969 8.21546 6.50325 8.1641C6.39996 8.01853 6.39996 7.81237 6.39996 7.40004Z" fill="white"/>
<path d="M6.39996 16.6001C6.39996 16.1877 6.39996 15.9816 6.50325 15.836C6.53969 15.7846 6.58454 15.7398 6.63591 15.7033C6.78148 15.6001 6.98764 15.6001 7.39996 15.6001C7.81229 15.6001 8.01845 15.6001 8.16402 15.7033C8.21538 15.7398 8.26023 15.7846 8.29668 15.836C8.39996 15.9816 8.39996 16.1877 8.39996 16.6001C8.39996 17.0124 8.39996 17.2185 8.29668 17.3641C8.26023 17.4155 8.21538 17.4603 8.16402 17.4968C8.01845 17.6001 7.81229 17.6001 7.39996 17.6001C6.98764 17.6001 6.78148 17.6001 6.63591 17.4968C6.58454 17.4603 6.53969 17.4155 6.50325 17.3641C6.39996 17.2185 6.39996 17.0124 6.39996 16.6001Z" fill="white"/>
<path d="M15.2 16.6C15.2 16.0382 15.2 15.7573 15.3348 15.5556C15.3932 15.4682 15.4682 15.3932 15.5556 15.3348C15.7573 15.2 16.0382 15.2 16.6 15.2C17.1618 15.2 17.4427 15.2 17.6445 15.3348C17.7318 15.3932 17.8068 15.4682 17.8652 15.5556C18 15.7573 18 16.0382 18 16.6C18 17.1618 18 17.4427 17.8652 17.6445C17.8068 17.7318 17.7318 17.8068 17.6445 17.8652C17.4427 18 17.1618 18 16.6 18C16.0382 18 15.7573 18 15.5556 17.8652C15.4682 17.8068 15.3932 17.7318 15.3348 17.6445C15.2 17.4427 15.2 17.1618 15.2 16.6Z" fill="#5BA291"/>
</svg>
