<svg width="24" height="25" viewBox="0 0 24 25" fill="none" xmlns="http://www.w3.org/2000/svg">
<path d="M12 9.96731C10.6745 9.96731 9.59996 8.89279 9.59996 7.56731C9.59996 6.24183 10.6745 5.16731 12 5.16731C13.3254 5.16731 14.4 6.24183 14.4 7.56731C14.4 8.89279 13.3254 9.96731 12 9.96731Z" stroke="#5BA291" stroke-width="1.2"/>
<path d="M6.79995 19.5673C5.47447 19.5673 4.39995 18.4928 4.39995 17.1673C4.39995 15.8418 5.47447 14.7673 6.79995 14.7673C8.12543 14.7673 9.19995 15.8418 9.19995 17.1673C9.19995 18.4928 8.12543 19.5673 6.79995 19.5673Z" stroke="white" stroke-width="1.2"/>
<path d="M17.2 19.5673C15.8745 19.5673 14.8 18.4928 14.8 17.1673C14.8 15.8418 15.8745 14.7673 17.2 14.7673C18.5255 14.7673 19.6 15.8418 19.6 17.1673C19.6 18.4928 18.5255 19.5673 17.2 19.5673Z" stroke="white" stroke-width="1.2"/>
<path d="M18.3999 13.1673C18.3999 11.2557 17.5619 9.53994 16.2332 8.36723M5.59995 13.1673C5.59995 11.2557 6.43796 9.53994 7.76665 8.36723M10.3999 19.3656C10.9113 19.4972 11.4475 19.5673 11.9999 19.5673C12.5524 19.5673 13.0886 19.4972 13.5999 19.3656" stroke="white" stroke-width="1.2" stroke-linecap="round"/>
</svg>
